<svg id="Layer_1" data-name="Layer 1" xmlns="http://www.w3.org/2000/svg" viewBox="0 0 512 512"><defs><style>.cls-1{fill:#727272;}</style></defs><title>chat-bubbles-handdrawn</title><path class="cls-1" d="M41.13,239.34a70,70,0,0,0,12.15,5.15l1.28.43.1,0c.06,0,0,.13,0,.19v65.25l8.24-8.24,0,.08L117.16,248h58c-.17.26-.31.43-.49.71a62.28,62.28,0,0,0-8.7,25.44c-.72,9.24-.71,18.63-1,28.1q-.46,25.22-.93,50.69l-.39,25.48c-.26,8.48.45,17.59,3.32,25.92,7.64,24.1,30.11,43,55.75,45.86,6.49.68,12.55.59,18.61.67l18.26.18,36.55.24,100.37.88,24.19,24.65L455.63,512q0-24.86,0-49.79l-.06-9.22,0-2.13,0-.78a3.54,3.54,0,0,1,.7-.23l.75-.21.42-.12,1.15-.41,4.59-1.67A74.26,74.26,0,0,0,472,443a82.72,82.72,0,0,0,12.67-9,69.41,69.41,0,0,0,23.54-46l.31-5.36.07-4.89q.12-9.78.23-19.59.13-39.25.26-78.86a79,79,0,0,0-3.3-21.6A75.85,75.85,0,0,0,496,238.1a72,72,0,0,0-34.18-26.27,68.19,68.19,0,0,0-21.34-4.33c-7.19-.34-13.28-.17-20-.3l-39.1-.56-7.33,0c-11,.12-20.5.64-27.55,1.4a72,72,0,0,0,7.75-29.88c.25-11.31.09-21.74.16-32.65l.15-64.77q0-3.72,0-7.36c0-2.44-.23-5.34-.36-7.94-.29-2.65-.78-5.26-1.2-7.85-.69-2.53-1.29-5.06-2.08-7.5A69.36,69.36,0,0,0,336,25,66.65,66.65,0,0,0,290.24,3.69c-5.92-.08-8.6.65-8.06,1.27.26.34,1.32.7,3.16,1.06s4.46.7,7.83,1.44c21.08,4.07,39.8,19.68,47.91,40.17,3.64,9.13,4.78,18.87,4.43,28.74l-.44,29.82q-.37,29.88-.73,59.88c-.17,7.21.18,14.18-1.3,20.83A63.59,63.59,0,0,1,335.89,206,60.93,60.93,0,0,1,286,236.57c-6.68.34-14.16,0-21.2,0l-42.92-.24L112,235.59l-44.46,43.7.09-15v-28a6.56,6.56,0,0,0-.07-1.42l-1.43-.36-2.85-.71-2.85-.71c-.87-.22-2.14-.51-2.46-.65l-3.11-1C52.8,230.72,51,229.7,49,228.9a62.4,62.4,0,0,1-10.81-6.85,59.67,59.67,0,0,1-16.29-19.69A49.76,49.76,0,0,1,17,187.56a59.55,59.55,0,0,1-.85-10.35c0-3.5.15-7.49.2-11.22q.22-11.38.45-22.81.28-22.87.57-45.91.07-11.52.15-23.07a63,63,0,0,1,3.18-20.48A57.67,57.67,0,0,1,65.65,15.5,66.75,66.75,0,0,1,76,14.62H87.65l46.38,0c30.87.07,61.63.27,92.11.78l8.61,0c30.64-.29,51.77-2.79,46.59-5.51C271.47,4.71,229.56,1,171.89.24L111.54,0H75.64A82.86,82.86,0,0,0,62.4,1.19a72.38,72.38,0,0,0-56.55,51A79.17,79.17,0,0,0,3.32,65.27L3,71.93V173.67c-.44,17.31,5.65,35.71,17.44,49A73,73,0,0,0,41.13,239.34ZM231.52,248h44.07c2.49,0,4.8,0,7.44,0s5.48-.11,8.18-.58a72.25,72.25,0,0,0,51.37-32.29c15,3.65,45.7,6.18,85.1,6.76,8.85.09,16.27,0,23.6,2a57.34,57.34,0,0,1,20.36,9.79,56.63,56.63,0,0,1,19.54,26.76,54.18,54.18,0,0,1,3.1,16.45c.25,5.74.07,12.53.13,18.74v85.72a64.1,64.1,0,0,1-.52,8.55,54.33,54.33,0,0,1-4.5,16.11,57.56,57.56,0,0,1-21.78,25,54.52,54.52,0,0,1-7.43,3.91,28.21,28.21,0,0,1-4,1.57,44.44,44.44,0,0,1-5.67,1.68L446,439.24l-2.27.57c-.34.12-.84.13-1.05.35v40.53L436.95,475l0,0-35.31-35.31H240.52c-4.23-.07-9.14.14-12.81-.15a34.62,34.62,0,0,1-5.77-.56,34.16,34.16,0,0,1-5.68-1.15A56.85,56.85,0,0,1,173.62,386c-.31-3.79-.1-8.89-.15-13.34l0-13.79.09-27.58c.06-16.89-.22-32.47-.81-46.95q-.12-2.7-.23-5.36c-.07-1.59-.09-3.17-.06-4.74a62.92,62.92,0,0,1,.91-9.22,65.41,65.41,0,0,1,5.44-17l0,0Zm11.93,54.73c-.85-2.72,2.62-5.22,7.66-5.51a9.64,9.64,0,0,1,1.42,0c20,2.06,40.81-.89,60.65,2.63A11.85,11.85,0,0,0,316,300c16.14-1.24,32.08.66,48.11,1,9.41.19,18.8.93,28.17,1.55,6.57.43,13.14,1,19.63,1.66a95.75,95.75,0,0,1,10.7,1.88c2.23.5,2.35,2.41.54,3.29a36.2,36.2,0,0,1-16.84,3.46q-10.64-.19-21.3-.22-24.85,0-49.69,0v0q-32,0-63.92,0c-3.31,0-6.65,0-9.92-.24C252,311.64,245.08,307.88,243.45,302.71Zm76.7,55.14c1,.5,1,2.41.23,3.29-2.06,2.34-4.42,3.58-7.22,3.46q-4.56-.19-9.13-.22c-7.1,0-14.2,0-21.3,0v0q-13.7,0-27.39,0a24.78,24.78,0,0,1-4.25-.24c-4.06-.71-7-4.47-7.71-9.64-.37-2.72,1.12-5.22,3.28-5.51a1.79,1.79,0,0,1,.61,0c8.59,2.06,17.49-.89,26,2.63a2.31,2.31,0,0,0,1.2.23c6.92-1.24,13.75.66,20.62,1a115.5,115.5,0,0,1,12.07,1.55c2.82.43,5.63,1,8.41,1.66A21.28,21.28,0,0,1,320.15,357.85Zm-140-252.12v0q-32,0-63.92,0c-3.31,0-6.65,0-9.92-.24-9.48-.71-16.37-4.47-18-9.64-.85-2.72,2.62-5.22,7.66-5.51a9.64,9.64,0,0,1,1.42,0c20,2.06,40.81-.89,60.65,2.63a11.85,11.85,0,0,0,2.79.23c16.14-1.24,32.08.66,48.11,1,9.41.19,18.8.93,28.17,1.55,6.57.43,13.14,1,19.63,1.66a95.77,95.77,0,0,1,10.7,1.88c2.23.5,2.35,2.41.54,3.29A36.2,36.2,0,0,1,251.1,106q-10.64-.19-21.3-.22Q205,105.69,180.11,105.73Zm-52.55,51.73v0q-13.7,0-27.39,0a24.78,24.78,0,0,1-4.25-.24c-4.06-.71-7-4.47-7.71-9.64-.37-2.72,1.12-5.22,3.28-5.51a1.79,1.79,0,0,1,.61,0c8.59,2.06,17.49-.89,26,2.63a2.31,2.31,0,0,0,1.2.23c6.92-1.24,13.75.66,20.62,1A115.6,115.6,0,0,1,152,147.39c2.82.43,5.63,1,8.41,1.66a21.28,21.28,0,0,1,4.58,1.88c1,.5,1,2.41.23,3.29-2.06,2.34-4.42,3.58-7.22,3.46q-4.56-.19-9.13-.22C141.75,157.44,134.65,157.46,127.55,157.46Z"/></svg>