<?xml version="1.0" encoding="UTF-8"?>
<svg xmlns="http://www.w3.org/2000/svg" xmlns:xlink="http://www.w3.org/1999/xlink" width="240px" height="240px" viewBox="0 0 240 69" version="1.1">
<g id="surface1">
<path style=" stroke:none;fill-rule:nonzero;fill:rgb(13.333333%,13.333333%,13.333333%);fill-opacity:1;" d="M 1.5625 53.535156 L 1.5625 27.164062 L 34.910156 27.164062 L 34.910156 25.621094 L 1.5625 25.621094 L 1.5625 1.5625 L 37.019531 1.5625 L 37.019531 0.0234375 L 0 0.0234375 L 0 55.078125 L 37.332031 55.078125 L 37.332031 53.535156 Z M 67.398438 15.441406 L 53.578125 33.410156 L 40.066406 15.445312 L 38.035156 15.445312 L 52.640625 34.566406 L 36.628906 55.074219 L 38.503906 55.074219 L 53.574219 35.722656 L 68.726562 55.074219 L 70.679688 55.074219 L 54.589844 34.566406 L 69.273438 15.441406 Z M 75.367188 68.648438 L 75.367188 43.972656 L 75.523438 43.972656 C 76.460938 47.570312 78.308594 50.464844 81.066406 52.648438 C 83.828125 54.832031 87.339844 55.925781 91.609375 55.925781 C 94.371094 55.925781 96.816406 55.371094 98.953125 54.265625 C 101.085938 53.164062 102.871094 51.660156 104.300781 49.757812 C 105.734375 47.855469 106.828125 45.644531 107.582031 43.125 C 108.335938 40.605469 108.714844 37.957031 108.714844 35.183594 C 108.714844 32.203125 108.324219 29.453125 107.542969 26.933594 C 106.761719 24.414062 105.628906 22.230469 104.144531 20.378906 C 102.660156 18.527344 100.867188 17.089844 98.757812 16.0625 C 96.648438 15.03125 94.265625 14.519531 91.609375 14.519531 C 89.578125 14.519531 87.691406 14.8125 85.949219 15.40625 C 84.203125 15.996094 82.65625 16.832031 81.300781 17.910156 C 79.941406 19 78.753906 20.285156 77.789062 21.726562 C 76.796875 23.191406 76.042969 24.800781 75.523438 26.546875 L 75.367188 26.546875 L 75.367188 15.441406 L 73.804688 15.441406 L 73.804688 68.648438 Z M 91.609375 54.460938 C 86.71875 54.460938 82.785156 52.800781 79.816406 49.484375 C 76.851562 46.171875 75.367188 41.402344 75.367188 35.183594 C 75.367188 32.613281 75.730469 30.171875 76.460938 27.859375 C 77.1875 25.542969 78.242188 23.515625 79.621094 21.765625 C 81.003906 20.019531 82.707031 18.628906 84.738281 17.601562 C 86.769531 16.574219 89.058594 16.058594 91.609375 16.058594 C 94.214844 16.058594 96.492188 16.574219 98.445312 17.601562 C 100.398438 18.628906 102.011719 20.03125 103.285156 21.804688 C 104.5625 23.578125 105.527344 25.609375 106.175781 27.894531 C 106.828125 30.183594 107.152344 32.613281 107.152344 35.183594 C 107.152344 37.496094 106.851562 39.796875 106.253906 42.082031 C 105.65625 44.371094 104.730469 46.425781 103.480469 48.253906 C 102.234375 50.078125 100.632812 51.566406 98.679688 52.726562 C 96.726562 53.882812 94.371094 54.460938 91.609375 54.460938 Z M 117.304688 55.078125 L 117.304688 32.636719 C 117.304688 30.480469 117.617188 28.371094 118.242188 26.316406 C 118.867188 24.257812 119.832031 22.445312 121.132812 20.878906 C 122.433594 19.3125 124.085938 18.078125 126.09375 17.179688 C 128.097656 16.277344 130.476562 15.90625 133.238281 16.058594 L 133.238281 14.519531 C 130.84375 14.46875 128.746094 14.722656 126.949219 15.289062 C 125.15625 15.855469 123.605469 16.625 122.304688 17.601562 C 121.003906 18.578125 119.960938 19.722656 119.179688 21.035156 C 118.398438 22.34375 117.820312 23.757812 117.460938 25.234375 L 117.304688 25.234375 L 117.304688 15.441406 L 115.742188 15.441406 L 115.742188 55.078125 Z M 135.191406 35.566406 L 168.773438 35.566406 C 168.878906 32.84375 168.605469 30.222656 167.953125 27.703125 C 167.300781 25.183594 166.261719 22.949219 164.828125 20.996094 C 163.398438 19.042969 161.550781 17.472656 159.285156 16.292969 C 157.019531 15.109375 154.324219 14.519531 151.199219 14.519531 C 148.960938 14.519531 146.773438 14.980469 144.640625 15.90625 C 142.503906 16.832031 140.632812 18.179688 139.015625 19.953125 C 137.402344 21.726562 136.101562 23.898438 135.113281 26.46875 C 134.125 29.039062 133.628906 31.96875 133.628906 35.261719 C 133.628906 38.191406 133.96875 40.925781 134.644531 43.472656 C 135.320312 46.015625 136.363281 48.226562 137.765625 50.101562 C 139.171875 51.980469 140.984375 53.429688 143.195312 54.460938 C 145.40625 55.488281 148.078125 55.976562 151.199219 55.925781 C 155.78125 55.925781 159.636719 54.652344 162.757812 52.109375 C 165.882812 49.5625 167.730469 45.976562 168.304688 41.351562 L 166.742188 41.351562 C 166.066406 45.722656 164.335938 48.996094 161.550781 51.183594 C 158.761719 53.367188 155.261719 54.460938 151.042969 54.460938 C 148.179688 54.460938 145.757812 53.972656 143.78125 52.996094 C 141.804688 52.019531 140.1875 50.679688 138.9375 48.984375 C 137.691406 47.289062 136.765625 45.296875 136.167969 43.007812 C 135.566406 40.722656 135.242188 38.242188 135.191406 35.566406 Z M 167.210938 34.027344 L 135.191406 34.027344 C 135.347656 31.25 135.867188 28.757812 136.753906 26.546875 C 137.636719 24.335938 138.796875 22.445312 140.226562 20.878906 C 141.660156 19.3125 143.324219 18.117188 145.226562 17.292969 C 147.125 16.472656 149.171875 16.058594 151.355469 16.058594 C 153.960938 16.058594 156.25 16.535156 158.230469 17.488281 C 160.207031 18.4375 161.859375 19.734375 163.1875 21.378906 C 164.515625 23.027344 165.519531 24.941406 166.195312 27.125 C 166.871094 29.308594 167.210938 31.609375 167.210938 34.027344 Z M 201.183594 27.164062 L 202.746094 27.164062 C 202.746094 22.742188 201.445312 19.53125 198.84375 17.523438 C 196.238281 15.519531 192.699219 14.519531 188.21875 14.519531 C 185.71875 14.519531 183.613281 14.828125 181.894531 15.445312 C 180.175781 16.058594 178.769531 16.855469 177.675781 17.832031 C 176.582031 18.808594 175.800781 19.890625 175.332031 21.070312 C 174.863281 22.253906 174.628906 23.386719 174.628906 24.464844 C 174.628906 26.625 175.019531 28.347656 175.800781 29.632812 C 176.582031 30.917969 177.808594 31.917969 179.472656 32.636719 C 180.617188 33.152344 181.917969 33.613281 183.378906 34.027344 C 184.835938 34.4375 186.527344 34.875 188.453125 35.335938 C 190.171875 35.75 191.863281 36.160156 193.53125 36.570312 C 195.195312 36.980469 196.667969 37.535156 197.941406 38.226562 C 199.21875 38.921875 200.261719 39.808594 201.066406 40.890625 C 201.875 41.96875 202.277344 43.382812 202.277344 45.128906 C 202.277344 46.824219 201.875 48.265625 201.066406 49.449219 C 200.265625 50.625 199.214844 51.609375 197.984375 52.339844 C 196.734375 53.085938 195.339844 53.625 193.804688 53.957031 C 192.269531 54.292969 190.769531 54.460938 189.3125 54.460938 C 184.574219 54.460938 180.945312 53.417969 178.417969 51.335938 C 175.894531 49.253906 174.632812 45.976562 174.632812 41.503906 L 173.070312 41.503906 C 173.070312 46.492188 174.433594 50.140625 177.167969 52.453125 C 179.902344 54.769531 183.949219 55.925781 189.3125 55.925781 C 191.03125 55.925781 192.761719 55.730469 194.507812 55.347656 C 196.25 54.960938 197.8125 54.332031 199.191406 53.457031 C 200.5625 52.59375 201.710938 51.433594 202.550781 50.066406 C 203.410156 48.675781 203.839844 46.980469 203.839844 44.976562 C 203.839844 43.074219 203.460938 41.53125 202.707031 40.347656 C 201.953125 39.167969 200.964844 38.191406 199.738281 37.417969 C 198.515625 36.648438 197.136719 36.042969 195.601562 35.605469 C 194.054688 35.167969 192.507812 34.742188 190.953125 34.335938 C 189.042969 33.839844 187.128906 33.351562 185.214844 32.871094 C 183.574219 32.457031 182.050781 31.96875 180.644531 31.40625 C 179.289062 30.839844 178.210938 30.03125 177.402344 28.976562 C 176.597656 27.921875 176.191406 26.417969 176.191406 24.464844 C 176.191406 24.105469 176.296875 23.460938 176.503906 22.539062 C 176.714844 21.613281 177.207031 20.671875 177.988281 19.722656 C 178.769531 18.773438 179.96875 17.921875 181.582031 17.179688 C 183.195312 16.433594 185.410156 16.058594 188.21875 16.058594 C 190.148438 16.058594 191.902344 16.265625 193.492188 16.675781 C 195.078125 17.089844 196.445312 17.742188 197.589844 18.644531 C 198.738281 19.542969 199.621094 20.6875 200.246094 22.074219 C 200.871094 23.460938 201.183594 25.160156 201.183594 27.164062 Z M 237.34375 27.164062 L 238.90625 27.164062 C 238.90625 22.742188 237.605469 19.53125 235 17.523438 C 232.398438 15.519531 228.859375 14.519531 224.378906 14.519531 C 221.882812 14.519531 219.773438 14.828125 218.054688 15.445312 C 216.335938 16.058594 214.929688 16.855469 213.835938 17.832031 C 212.742188 18.808594 211.960938 19.890625 211.492188 21.070312 C 211.023438 22.253906 210.789062 23.386719 210.789062 24.464844 C 210.789062 26.625 211.179688 28.347656 211.960938 29.632812 C 212.742188 30.917969 213.96875 31.917969 215.632812 32.636719 C 216.777344 33.152344 218.078125 33.613281 219.539062 34.027344 C 220.996094 34.4375 222.6875 34.875 224.613281 35.335938 C 226.332031 35.75 228.023438 36.160156 229.691406 36.570312 C 231.355469 36.980469 232.828125 37.535156 234.105469 38.226562 C 235.378906 38.921875 236.421875 39.808594 237.226562 40.890625 C 238.035156 41.96875 238.4375 43.382812 238.4375 45.128906 C 238.4375 46.824219 238.035156 48.265625 237.226562 49.449219 C 236.425781 50.625 235.375 51.609375 234.144531 52.339844 C 232.894531 53.085938 231.5 53.625 229.964844 53.957031 C 228.429688 54.292969 226.929688 54.460938 225.472656 54.460938 C 220.734375 54.460938 217.105469 53.417969 214.578125 51.335938 C 212.054688 49.253906 210.789062 45.976562 210.789062 41.503906 L 209.230469 41.503906 C 209.230469 46.492188 210.59375 50.140625 213.328125 52.453125 C 216.0625 54.769531 220.109375 55.925781 225.472656 55.925781 C 227.191406 55.925781 228.921875 55.730469 230.667969 55.347656 C 232.410156 54.960938 233.972656 54.332031 235.351562 53.457031 C 236.722656 52.59375 237.871094 51.433594 238.710938 50.066406 C 239.570312 48.675781 240 46.980469 240 44.976562 C 240 43.074219 239.621094 41.53125 238.867188 40.347656 C 238.113281 39.167969 237.125 38.191406 235.898438 37.417969 C 234.675781 36.648438 233.296875 36.042969 231.761719 35.605469 C 230.214844 35.167969 228.667969 34.742188 227.113281 34.335938 C 225.203125 33.839844 223.289062 33.351562 221.375 32.871094 C 219.734375 32.457031 218.210938 31.96875 216.804688 31.40625 C 215.449219 30.839844 214.371094 30.03125 213.5625 28.976562 C 212.757812 27.921875 212.351562 26.417969 212.351562 24.464844 C 212.351562 24.105469 212.457031 23.460938 212.664062 22.539062 C 212.875 21.613281 213.367188 20.671875 214.148438 19.722656 C 214.929688 18.773438 216.128906 17.921875 217.742188 17.179688 C 219.355469 16.433594 221.566406 16.058594 224.378906 16.058594 C 226.308594 16.058594 228.0625 16.265625 229.652344 16.675781 C 231.238281 17.089844 232.605469 17.742188 233.753906 18.644531 C 234.898438 19.542969 235.78125 20.6875 236.40625 22.074219 C 237.03125 23.460938 237.34375 25.160156 237.34375 27.164062 Z M 237.34375 27.164062 "/>
</g>
</svg>
