<?xml version="1.0" encoding="UTF-8"?>
<svg xmlns="http://www.w3.org/2000/svg" xmlns:xlink="http://www.w3.org/1999/xlink" width="240px" height="240px" viewBox="0 0 240 240" version="1.1">
<g id="surface1">
<path style=" stroke:none;fill-rule:nonzero;fill:rgb(0%,0%,0%);fill-opacity:1;" d="M 30 30 L 210 30 L 210 210 L 30 210 Z M 195.25 167.070312 C 193.941406 158.859375 188.589844 151.960938 172.730469 145.519531 C 167.210938 142.929688 161.078125 141.140625 159.238281 136.980469 C 158.558594 134.5 158.460938 133.160156 158.898438 131.691406 C 160.03125 126.851562 165.769531 125.398438 170.269531 126.738281 C 173.199219 127.640625 175.898438 129.890625 177.589844 133.5 C 185.339844 128.429688 185.339844 128.429688 190.75 125.058594 C 188.71875 121.921875 187.710938 120.550781 186.359375 119.199219 C 181.628906 113.921875 175.328125 111.21875 165.101562 111.449219 L 159.820312 112.121094 C 154.75 113.359375 149.910156 116.070312 146.988281 119.660156 C 138.441406 129.339844 140.910156 146.210938 151.261719 153.199219 C 161.488281 160.851562 176.46875 162.53125 178.378906 169.730469 C 180.179688 178.511719 171.859375 181.320312 163.628906 180.308594 C 157.558594 178.949219 154.179688 175.921875 150.46875 170.289062 L 136.75 178.171875 C 138.320312 181.761719 140.121094 183.339844 142.820312 186.488281 C 155.871094 199.648438 188.5 198.980469 194.351562 178.949219 C 194.558594 178.28125 196.148438 173.671875 194.910156 166.578125 Z M 127.878906 112.730469 L 111.019531 112.730469 C 111.019531 127.261719 110.949219 141.710938 110.949219 156.269531 C 110.949219 165.511719 111.421875 173.988281 109.910156 176.601562 C 107.441406 181.769531 101.050781 181.109375 98.160156 180.191406 C 95.191406 178.730469 93.679688 176.699219 91.929688 173.78125 C 91.460938 173 91.109375 172.320312 90.980469 172.320312 L 77.300781 180.761719 C 79.589844 185.488281 82.929688 189.550781 87.238281 192.128906 C 93.648438 195.960938 102.261719 197.199219 111.28125 195.179688 C 117.160156 193.480469 122.230469 189.988281 124.859375 184.589844 C 128.699219 177.621094 127.878906 169.058594 127.851562 159.5 C 127.929688 144.089844 127.851562 128.671875 127.851562 113.148438 Z M 127.878906 112.730469 "/>
</g>
</svg>
