<?xml version="1.0" encoding="UTF-8"?>
<svg xmlns="http://www.w3.org/2000/svg" xmlns:xlink="http://www.w3.org/1999/xlink" width="240px" height="240px" viewBox="0 0 240 240" version="1.1">
<g id="surface1">
<path style=" stroke:none;fill-rule:nonzero;fill:rgb(0%,0%,0%);fill-opacity:1;" d="M 171.796875 95.199219 C 159.179688 39.570312 129.375 21.328125 126.171875 14.339844 C 122.65625 9.382812 118.867188 0.0078125 118.867188 0.0078125 C 118.828125 0.203125 118.828125 0.324219 118.792969 0.515625 L 118.792969 0.636719 C 118.792969 0.796875 118.753906 0.871094 118.753906 1.027344 L 118.753906 1.183594 L 118.71875 1.183594 C 118.71875 1.261719 118.71875 1.34375 118.71875 1.417969 L 118.71875 1.6875 L 118.679688 1.6875 C 118.679688 1.761719 118.679688 1.882812 118.640625 1.921875 L 118.640625 2.152344 C 118.640625 2.226562 118.640625 2.308594 118.605469 2.347656 L 118.605469 2.542969 C 118.605469 2.664062 118.605469 2.773438 118.566406 2.859375 L 118.566406 2.894531 C 118.566406 3.050781 118.53125 3.246094 118.492188 3.40625 L 118.492188 3.480469 C 118.453125 3.515625 118.453125 3.554688 118.453125 3.601562 L 118.453125 3.757812 L 118.417969 3.757812 L 118.417969 3.988281 L 118.378906 3.988281 L 118.378906 4.148438 L 118.304688 4.148438 L 118.304688 4.378906 L 118.265625 4.378906 L 118.265625 4.574219 L 118.230469 4.574219 L 118.230469 4.734375 L 118.191406 4.734375 L 118.191406 4.890625 L 118.15625 4.890625 L 118.15625 5.046875 L 118.117188 5.046875 L 118.117188 5.203125 L 118.078125 5.203125 L 118.078125 5.324219 L 118.042969 5.324219 L 118.042969 5.484375 L 118.003906 5.484375 C 118.003906 5.484375 118.003906 5.519531 118.003906 5.519531 L 118.003906 5.640625 L 117.96875 5.640625 C 117.929688 5.640625 117.929688 5.675781 117.929688 5.675781 L 117.929688 5.753906 C 117.929688 5.753906 117.890625 5.828125 117.890625 5.828125 C 117.890625 5.902344 117.855469 5.984375 117.816406 6.058594 C 117.78125 6.097656 117.78125 6.097656 117.78125 6.136719 L 117.78125 6.210938 L 117.742188 6.210938 L 117.742188 6.285156 L 117.667969 6.285156 L 117.667969 6.480469 L 117.59375 6.480469 L 117.59375 6.601562 L 117.554688 6.601562 L 117.554688 6.636719 L 117.515625 6.636719 L 117.515625 6.710938 L 117.480469 6.710938 L 117.480469 6.832031 L 117.441406 6.832031 L 117.441406 6.90625 L 117.367188 6.90625 L 117.367188 7.027344 L 117.328125 7.027344 L 117.328125 7.101562 L 117.292969 7.101562 L 117.292969 7.175781 L 117.253906 7.175781 L 117.253906 7.296875 L 117.21875 7.296875 L 117.21875 7.371094 L 117.179688 7.371094 L 117.179688 7.410156 L 117.140625 7.410156 L 117.140625 7.484375 L 117.066406 7.484375 L 117.066406 7.605469 L 117.03125 7.605469 L 117.03125 7.640625 L 116.992188 7.640625 L 116.992188 7.71875 L 116.953125 7.71875 L 116.953125 7.835938 L 116.917969 7.835938 L 116.917969 7.875 L 116.878906 7.875 L 116.878906 7.949219 L 116.84375 7.949219 L 116.84375 7.988281 L 116.804688 7.988281 L 116.804688 8.109375 L 116.730469 8.109375 L 116.730469 8.144531 L 116.691406 8.144531 L 116.691406 8.21875 L 116.65625 8.21875 L 116.65625 8.257812 L 116.617188 8.257812 L 116.617188 8.332031 L 116.578125 8.332031 C 116.578125 8.371094 116.578125 8.371094 116.578125 8.371094 L 116.578125 8.40625 C 116.542969 8.40625 116.542969 8.445312 116.542969 8.445312 L 116.542969 8.484375 L 116.503906 8.484375 C 116.46875 8.558594 116.429688 8.601562 116.386719 8.675781 C 116.386719 8.675781 116.308594 8.753906 116.308594 8.796875 C 116.273438 8.796875 116.273438 8.835938 116.273438 8.835938 L 116.273438 8.871094 L 116.234375 8.871094 L 116.234375 8.910156 L 116.199219 8.910156 C 116.199219 8.910156 116.199219 8.910156 116.199219 8.949219 L 116.199219 8.984375 L 116.121094 8.984375 L 116.121094 9.023438 C 116.121094 9.023438 116.085938 9.023438 116.085938 9.023438 L 116.085938 9.058594 L 116.046875 9.058594 C 116.046875 9.058594 116.046875 9.097656 116.046875 9.097656 L 116.046875 9.171875 L 116.011719 9.171875 L 116.011719 9.210938 L 115.972656 9.210938 L 115.972656 9.246094 L 115.933594 9.246094 L 115.933594 9.324219 L 115.898438 9.324219 L 115.898438 9.246094 L 115.824219 9.246094 L 115.824219 9.285156 L 115.785156 9.285156 L 115.785156 9.359375 L 115.746094 9.359375 L 115.746094 9.433594 L 115.710938 9.433594 L 115.710938 9.472656 L 115.671875 9.472656 L 115.671875 9.511719 L 115.636719 9.511719 L 115.636719 9.546875 L 115.597656 9.546875 L 115.597656 9.621094 L 115.523438 9.621094 L 115.523438 9.660156 L 115.484375 9.660156 L 115.484375 9.734375 L 115.449219 9.734375 L 115.449219 9.773438 L 115.410156 9.773438 L 115.410156 9.808594 L 115.371094 9.808594 L 115.371094 9.929688 L 115.335938 9.929688 L 115.335938 9.96875 L 115.296875 9.96875 L 115.296875 10.003906 L 115.261719 10.003906 L 115.261719 10.042969 L 115.222656 10.042969 L 115.222656 10.078125 L 115.148438 10.078125 L 115.148438 10.15625 L 115.109375 10.15625 L 115.109375 10.191406 L 115.074219 10.191406 L 115.074219 10.230469 L 115.035156 10.230469 L 115.035156 10.304688 L 114.996094 10.304688 L 114.996094 10.34375 L 114.921875 10.34375 L 114.921875 10.378906 L 114.886719 10.378906 L 114.886719 10.417969 L 114.847656 10.417969 L 114.847656 10.492188 L 114.808594 10.492188 L 114.808594 10.566406 L 114.773438 10.566406 L 114.773438 10.605469 L 114.734375 10.605469 L 114.734375 10.640625 L 114.660156 10.640625 L 114.660156 10.679688 L 114.621094 10.679688 L 114.621094 10.71875 L 114.585938 10.71875 L 114.585938 10.792969 L 114.546875 10.792969 L 114.546875 10.828125 L 114.511719 10.828125 L 114.511719 10.90625 L 114.472656 10.90625 L 114.472656 10.941406 L 114.433594 10.941406 L 114.433594 10.980469 L 114.398438 10.980469 L 114.398438 11.015625 L 114.359375 11.015625 L 114.359375 11.054688 L 114.285156 11.054688 L 114.285156 11.09375 C 114.246094 11.09375 114.246094 11.128906 114.246094 11.128906 L 114.210938 11.167969 C 114.210938 11.167969 114.171875 11.203125 114.171875 11.203125 L 114.171875 11.28125 L 114.136719 11.28125 L 114.136719 11.316406 L 114.097656 11.316406 L 114.097656 11.355469 L 114.058594 11.355469 L 114.058594 11.390625 L 114.023438 11.390625 L 113.949219 11.46875 L 113.949219 11.503906 C 113.871094 11.542969 113.871094 11.578125 113.789062 11.664062 C 113.789062 11.664062 113.714844 11.738281 113.671875 11.738281 C 113.550781 11.8125 113.398438 11.96875 113.28125 12.089844 C 113.203125 12.128906 113.121094 12.210938 113.046875 12.246094 C 112.890625 12.40625 112.734375 12.515625 112.574219 12.636719 C 112.34375 12.871094 112.101562 13.027344 111.832031 13.261719 L 111.796875 13.261719 C 111.246094 13.734375 110.625 14.273438 109.957031 14.863281 L 109.921875 14.863281 C 108.238281 16.351562 106.246094 18.261719 103.980469 20.527344 L 103.785156 20.722656 C 90.1875 34.785156 68.746094 64.117188 66.515625 111.503906 C 66.285156 115.410156 66.324219 119.234375 66.554688 122.949219 L 66.554688 123.023438 C 67.648438 141.699219 73.507812 157.636719 80.851562 170.601562 C 83.738281 175.761719 86.902344 180.449219 90.105469 184.664062 C 101.121094 199.199219 112.371094 207.832031 115.222656 209.941406 C 119.640625 220.132812 119.242188 237.710938 119.242188 237.710938 L 125.683594 239.859375 C 125.683594 239.859375 124.359375 222.863281 126.195312 214.621094 C 126.78125 212.078125 128.109375 209.894531 129.675781 208.019531 C 130.769531 207.277344 133.898438 205.011719 137.648438 201.578125 C 137.84375 201.382812 137.960938 201.226562 138.121094 201.03125 C 153.316406 186.847656 181.71875 151.925781 171.988281 95.054688 Z M 171.796875 95.199219 "/>
</g>
</svg>
