<?xml version="1.0" encoding="UTF-8"?>
<svg xmlns="http://www.w3.org/2000/svg" xmlns:xlink="http://www.w3.org/1999/xlink" width="240px" height="240px" viewBox="0 0 240 240" version="1.1">
<g id="surface1">
<path style=" stroke:none;fill-rule:nonzero;fill:rgb(0%,0%,0%);fill-opacity:1;" d="M 141.308594 0.46875 C 139.578125 0.46875 137.96875 0.839844 136.480469 1.339844 C 139.640625 3.441406 141.378906 6.238281 142.238281 9.398438 C 142.308594 9.828125 142.429688 10.140625 142.488281 10.570312 C 142.5625 10.9375 142.609375 11.3125 142.621094 11.691406 C 142.859375 17.140625 141.191406 17.828125 140.019531 21.050781 C 138.21875 25.199219 138.71875 29.660156 140.878906 33.25 C 141.078125 33.730469 141.324219 34.191406 141.621094 34.621094 C 139.269531 18.941406 152.351562 16.589844 154.761719 11.691406 C 154.949219 7.410156 151.421875 4.558594 148.628906 2.578125 C 146.4375 1.203125 143.898438 0.472656 141.308594 0.480469 Z M 161.019531 4 C 160.78125 5.429688 160.960938 5.058594 160.898438 5.800781 C 160.839844 6.300781 160.839844 6.921875 160.78125 7.410156 C 160.648438 7.910156 160.53125 8.410156 160.339844 8.898438 C 160.21875 9.398438 160.039062 9.898438 159.839844 10.390625 L 159.171875 11.808594 C 158.96875 12.058594 158.859375 12.308594 158.671875 12.558594 L 158.300781 13.109375 C 158.003906 13.535156 157.695312 13.949219 157.371094 14.351562 C 157 14.730469 156.691406 15.160156 156.25 15.46875 L 156.25 15.53125 C 155.878906 15.839844 155.511719 16.210938 155.070312 16.53125 C 153.769531 17.519531 152.289062 18.261719 150.921875 19.191406 C 150.488281 19.488281 150.050781 19.75 149.679688 20.121094 C 149.257812 20.414062 148.863281 20.746094 148.5 21.109375 C 148.070312 21.480469 147.761719 21.851562 147.390625 22.289062 C 147.078125 22.660156 146.710938 23.089844 146.460938 23.53125 C 146.148438 23.949219 145.859375 24.382812 145.589844 24.828125 C 145.339844 25.328125 145.160156 25.761719 144.910156 26.25 C 144.71875 26.75 144.539062 27.179688 144.410156 27.679688 C 144.246094 28.191406 144.101562 28.707031 143.980469 29.230469 C 143.921875 29.480469 143.921875 29.789062 143.859375 30.03125 C 143.789062 30.28125 143.789062 30.53125 143.730469 30.78125 C 143.730469 31.28125 143.671875 31.828125 143.671875 32.328125 C 143.671875 32.699219 143.671875 33.070312 143.730469 33.441406 C 143.730469 33.941406 143.789062 34.441406 143.921875 34.988281 C 143.980469 35.488281 144.101562 35.988281 144.21875 36.488281 C 144.421875 36.980469 144.539062 37.46875 144.71875 37.96875 C 144.851562 38.269531 145.03125 38.589844 145.160156 38.839844 L 130.898438 33.320312 C 128.488281 32.640625 126.128906 32.019531 123.710938 31.460938 L 119.808594 30.53125 C 116.089844 29.789062 112.308594 29.230469 108.53125 28.859375 C 108.398438 28.859375 108.339844 28.800781 108.21875 28.800781 C 101.832031 28.160156 95.402344 28.078125 89 28.550781 C 85.21875 28.800781 81.441406 29.289062 77.660156 29.910156 C 74.851562 30.394531 72.058594 30.972656 69.289062 31.648438 L 66.5 32.390625 C 65.578125 32.761719 64.699219 33.191406 63.839844 33.570312 L 61.789062 34.5 C 61.671875 34.558594 61.550781 34.558594 61.488281 34.621094 C 60.859375 34.929688 60.308594 35.179688 59.75 35.488281 C 58.945312 35.84375 58.15625 36.238281 57.390625 36.671875 C 56.960938 36.851562 56.53125 37.101562 56.148438 37.289062 C 55.972656 37.398438 55.789062 37.5 55.601562 37.589844 C 55.039062 37.910156 54.480469 38.21875 53.980469 38.53125 C 53.46875 38.8125 52.976562 39.121094 52.5 39.460938 C 52.058594 39.761719 51.628906 40.011719 51.261719 40.320312 C 51.199219 40.390625 51.128906 40.390625 51.070312 40.449219 C 50.699219 40.699219 50.269531 41.011719 49.890625 41.320312 L 49.769531 41.441406 L 48.839844 42.179688 C 48.71875 42.25 48.589844 42.371094 48.46875 42.429688 C 48.160156 42.679688 47.851562 42.988281 47.539062 43.230469 C 47.480469 43.359375 47.351562 43.429688 47.289062 43.480469 C 46.921875 43.859375 46.550781 44.171875 46.179688 44.539062 C 46.109375 44.539062 46.109375 44.601562 46.050781 44.660156 C 45.664062 44.996094 45.292969 45.351562 44.941406 45.71875 C 44.871094 45.78125 44.871094 45.839844 44.808594 45.839844 C 44.484375 46.160156 44.175781 46.492188 43.878906 46.839844 C 43.761719 46.960938 43.578125 47.078125 43.449219 47.199219 C 43.117188 47.59375 42.765625 47.96875 42.390625 48.320312 C 42.328125 48.441406 42.210938 48.511719 42.148438 48.621094 C 41.648438 49.121094 41.21875 49.621094 40.71875 50.121094 L 40.539062 50.300781 C 39.539062 51.359375 38.488281 52.410156 37.371094 53.339844 C 36.261719 54.339844 35.078125 55.261719 33.898438 56.070312 C 31.53125 57.761719 28.972656 59.175781 26.28125 60.28125 C 24.980469 60.839844 23.609375 61.339844 22.25 61.769531 C 19.648438 62.328125 16.980469 63.378906 14.691406 63.570312 C 14.191406 63.570312 13.640625 63.691406 13.140625 63.75 L 11.589844 64.121094 L 10.101562 64.679688 C 9.601562 64.871094 9.109375 65.121094 8.621094 65.359375 C 8.179688 65.671875 7.691406 65.921875 7.25 66.230469 C 6.808594 66.550781 6.394531 66.902344 6.011719 67.289062 C 5.578125 67.589844 5.140625 68.03125 4.769531 68.398438 C 4.398438 68.828125 4.03125 69.199219 3.71875 69.640625 C 3.410156 70.140625 3.039062 70.570312 2.789062 71.070312 C 2.464844 71.519531 2.171875 71.996094 1.921875 72.488281 C 1.671875 73.050781 1.421875 73.550781 1.238281 74.101562 C 1.050781 74.601562 0.871094 75.160156 0.679688 75.710938 C 0.558594 76.210938 0.429688 76.710938 0.378906 77.210938 C 0.378906 77.261719 0.308594 77.328125 0.308594 77.390625 C 0.191406 77.949219 0.191406 78.691406 0.121094 79.058594 C 0.0585938 79.5 0 79.859375 0 80.300781 C -0.0117188 81.378906 0.242188 82.441406 0.738281 83.398438 L 0.738281 83.460938 C 0.929688 83.828125 1.179688 84.210938 1.429688 84.578125 C 1.671875 84.949219 1.929688 85.320312 2.230469 85.691406 C 2.539062 86 2.910156 86.378906 3.289062 86.691406 C 3.652344 87.050781 4.042969 87.382812 4.460938 87.679688 C 5.949219 88.980469 6.320312 89.410156 8.238281 90.398438 C 8.550781 90.589844 8.859375 90.710938 9.238281 90.898438 C 9.300781 90.898438 9.359375 90.960938 9.421875 90.960938 C 9.421875 91.089844 9.421875 91.148438 9.480469 91.269531 C 9.625 92.292969 9.894531 93.292969 10.28125 94.25 C 10.480469 94.621094 10.601562 94.988281 10.78125 95.359375 C 10.851562 95.488281 10.910156 95.609375 10.980469 95.671875 C 11.21875 96.171875 11.46875 96.601562 11.710938 97.039062 L 12.640625 98.339844 C 12.949219 98.710938 13.328125 99.140625 13.699219 99.519531 C 14.070312 99.890625 14.441406 100.199219 14.878906 100.570312 C 14.878906 100.570312 14.941406 100.628906 15 100.628906 C 15.371094 100.941406 15.738281 101.25 16.121094 101.5 C 16.550781 101.800781 17.007812 102.070312 17.480469 102.300781 C 17.910156 102.550781 18.410156 102.800781 18.898438 102.988281 C 19.300781 103.171875 19.714844 103.3125 20.140625 103.421875 C 20.210938 103.480469 20.269531 103.480469 20.390625 103.539062 C 20.640625 103.609375 20.949219 103.671875 21.191406 103.730469 C 21.011719 107.078125 20.949219 110.230469 21.449219 111.351562 C 22 112.589844 24.730469 108.808594 27.449219 104.46875 C 27.089844 108.75 26.839844 113.769531 27.449219 115.261719 C 28.140625 116.808594 31.851562 111.96875 35.078125 106.640625 C 79.03125 96.480469 119.128906 126.839844 123.339844 169.738281 C 122.539062 163.039062 114.289062 159.328125 110.511719 160.261719 C 108.648438 164.839844 105.488281 170.730469 100.410156 174.390625 C 100.839844 170.289062 100.660156 166.089844 99.789062 161.988281 C 98.402344 167.695312 95.777344 173.03125 92.101562 177.609375 C 86.21875 178.039062 80.328125 175.191406 77.230469 170.910156 C 76.980469 170.730469 76.921875 170.359375 76.730469 170.109375 C 76.550781 169.679688 76.359375 169.238281 76.230469 168.808594 C 76.050781 168.394531 75.925781 167.957031 75.859375 167.511719 C 75.800781 167.070312 75.800781 166.640625 75.800781 166.140625 L 75.800781 165.210938 C 75.875 164.769531 75.976562 164.335938 76.109375 163.910156 C 76.238281 163.480469 76.359375 163.050781 76.550781 162.609375 C 76.789062 162.179688 76.980469 161.738281 77.289062 161.308594 C 78.339844 158.328125 78.339844 155.910156 76.421875 154.488281 C 76.046875 154.246094 75.652344 154.039062 75.238281 153.871094 C 75 153.808594 74.691406 153.691406 74.441406 153.621094 L 73.941406 153.441406 C 73.515625 153.300781 73.082031 153.199219 72.640625 153.128906 C 72.21875 153.007812 71.78125 152.941406 71.339844 152.941406 C 70.890625 152.871094 70.433594 152.828125 69.980469 152.820312 C 69.671875 152.820312 69.359375 152.878906 69.050781 152.878906 C 68.585938 152.878906 68.125 152.941406 67.679688 153.070312 C 67.25 153.128906 66.820312 153.191406 66.378906 153.308594 C 65.9375 153.429688 65.503906 153.574219 65.078125 153.75 C 64.648438 153.929688 64.28125 154.121094 63.839844 154.308594 C 63.46875 154.488281 63.101562 154.738281 62.660156 154.929688 C 48.21875 164.351562 56.839844 186.410156 66.691406 192.800781 C 62.96875 193.480469 59.191406 194.28125 58.140625 195.089844 L 58.011719 195.210938 C 60.679688 196.820312 63.46875 198.191406 66.378906 199.371094 C 70.351562 200.671875 74.558594 201.839844 76.421875 202.339844 L 76.421875 202.398438 C 81.554688 203.453125 86.808594 203.832031 92.039062 203.519531 C 119.5 201.601562 142 180.710938 146.089844 153.191406 L 146.460938 154.800781 C 146.648438 155.921875 146.890625 157.101562 147.019531 158.269531 L 147.019531 158.328125 C 147.140625 158.890625 147.199219 159.449219 147.269531 159.949219 L 147.269531 160.191406 C 147.328125 160.75 147.390625 161.308594 147.390625 161.808594 C 147.449219 162.488281 147.511719 163.171875 147.511719 163.851562 L 147.511719 164.851562 C 147.511719 165.148438 147.578125 165.519531 147.578125 165.828125 C 147.578125 166.210938 147.511719 166.578125 147.511719 166.949219 L 147.511719 167.820312 C 147.511719 168.25 147.449219 168.621094 147.449219 169.058594 C 147.449219 169.308594 147.449219 169.558594 147.390625 169.859375 C 147.390625 170.300781 147.328125 170.730469 147.328125 171.230469 C 147.269531 171.410156 147.269531 171.601562 147.269531 171.78125 L 147.070312 173.210938 C 147.070312 173.398438 147.070312 173.578125 147.019531 173.769531 C 146.949219 174.390625 146.828125 174.949219 146.769531 175.570312 L 146.769531 175.691406 L 146.398438 177.429688 L 146.398438 177.609375 L 146.03125 179.28125 C 146.03125 179.351562 145.960938 179.480469 145.960938 179.53125 C 145.847656 180.097656 145.703125 180.65625 145.53125 181.210938 L 145.53125 181.390625 C 145.339844 182.011719 145.160156 182.570312 145.03125 183.128906 C 144.96875 183.191406 144.96875 183.25 144.96875 183.25 L 144.410156 185.109375 C 144.171875 185.730469 143.980469 186.289062 143.730469 186.910156 C 143.480469 187.53125 143.300781 188.148438 143.050781 188.710938 C 142.800781 189.328125 142.550781 189.878906 142.308594 190.511719 L 142.238281 190.511719 C 142 191.058594 141.738281 191.679688 141.441406 192.238281 C 141.386719 192.386719 141.324219 192.53125 141.25 192.671875 C 141.191406 192.730469 141.191406 192.800781 141.128906 192.859375 C 137.03125 201.066406 131.066406 208.199219 123.710938 213.679688 C 123.210938 213.988281 122.71875 214.371094 122.21875 214.738281 C 122.101562 214.859375 121.921875 214.921875 121.789062 215.039062 C 121.347656 215.367188 120.894531 215.679688 120.429688 215.980469 L 120.609375 216.351562 L 120.679688 216.351562 L 123.28125 215.980469 L 123.339844 215.980469 C 124.949219 215.730469 126.558594 215.421875 128.171875 215.109375 C 128.609375 215.050781 129.101562 214.921875 129.539062 214.800781 L 130.410156 214.609375 C 130.839844 214.550781 131.269531 214.429688 131.710938 214.371094 C 132.078125 214.238281 132.449219 214.171875 132.820312 214.058594 C 139.019531 212.558594 145.03125 210.519531 150.800781 208.109375 C 140.839844 221.679688 127.589844 232.492188 112.300781 239.53125 C 119.441406 239.03125 126.558594 237.859375 133.441406 235.871094 C 158.34375 228.546875 179.375 211.742188 192.011719 189.070312 C 189.457031 203.421875 183.765625 217.035156 175.339844 228.929688 C 181.347656 224.96875 186.898438 220.351562 191.890625 215.171875 C 205.761719 200.6875 214.871094 182.300781 217.988281 162.488281 C 220.089844 172.289062 220.710938 182.390625 219.789062 192.359375 C 264.53125 129.949219 223.5 65.238281 206.328125 48.199219 C 206.269531 48.070312 206.210938 48.011719 206.210938 47.890625 C 206.148438 47.949219 206.148438 47.949219 206.148438 48.011719 C 206.148438 47.949219 206.148438 47.949219 206.078125 47.890625 C 206.078125 48.628906 206.019531 49.371094 205.960938 50.121094 C 205.789062 51.507812 205.582031 52.890625 205.339844 54.269531 C 205.039062 55.628906 204.660156 57 204.289062 58.371094 C 203.851562 59.671875 203.359375 61.03125 202.789062 62.328125 C 202.222656 63.613281 201.605469 64.875 200.941406 66.109375 C 199.554688 68.539062 197.960938 70.84375 196.171875 72.988281 C 195.238281 74.101562 194.25 75.089844 193.25 76.089844 C 192.664062 76.625 192.066406 77.140625 191.449219 77.640625 L 190.03125 78.878906 C 188.921875 79.753906 187.765625 80.558594 186.558594 81.289062 C 185.375 82.054688 184.152344 82.757812 182.898438 83.398438 C 181.601562 84.019531 180.300781 84.578125 179 85.140625 C 176.351562 86.148438 173.613281 86.894531 170.820312 87.371094 C 169.390625 87.621094 167.96875 87.738281 166.601562 87.871094 C 165.613281 87.941406 164.621094 87.980469 163.628906 87.988281 C 162.21875 87.96875 160.8125 87.886719 159.410156 87.738281 C 157.996094 87.628906 156.585938 87.421875 155.199219 87.121094 C 153.792969 86.863281 152.40625 86.515625 151.050781 86.070312 L 150.980469 86.070312 C 152.351562 85.941406 153.710938 85.820312 155.078125 85.570312 C 157.871094 85.085938 160.609375 84.339844 163.261719 83.339844 C 164.621094 82.839844 165.921875 82.21875 167.160156 81.601562 C 168.460938 80.980469 169.640625 80.300781 170.878906 79.558594 C 172.058594 78.761719 173.230469 77.949219 174.351562 77.078125 C 175.46875 76.210938 176.519531 75.28125 177.511719 74.289062 C 178.558594 73.359375 179.488281 72.308594 180.421875 71.25 C 181.351562 70.140625 182.21875 69.019531 183.019531 67.910156 C 183.148438 67.71875 183.28125 67.46875 183.398438 67.289062 C 184.019531 66.289062 184.640625 65.300781 185.199219 64.308594 C 186.566406 61.84375 187.683594 59.246094 188.539062 56.558594 C 188.980469 55.261719 189.289062 53.898438 189.601562 52.53125 C 189.851562 51.109375 190.101562 49.75 190.21875 48.378906 C 190.339844 46.960938 190.46875 45.53125 190.46875 44.171875 C 190.46875 43.171875 190.398438 42.179688 190.339844 41.191406 C 190.214844 39.800781 190.050781 38.417969 189.839844 37.039062 C 189.597656 35.644531 189.292969 34.257812 188.921875 32.890625 C 188.480469 31.589844 188.050781 30.21875 187.550781 28.921875 C 187.050781 27.621094 186.441406 26.320312 185.820312 25.078125 C 185.128906 23.839844 184.449219 22.601562 183.710938 21.421875 C 182.917969 20.261719 182.089844 19.128906 181.230469 18.019531 C 180.300781 16.960938 179.371094 15.898438 178.378906 14.851562 C 177.859375 14.316406 177.320312 13.800781 176.769531 13.300781 C 173.96875 11.128906 171.070312 9.089844 168.148438 7.230469 C 167.75 7 167.335938 6.792969 166.910156 6.609375 C 165.070312 5.484375 163.089844 4.609375 161.019531 4.011719 Z M 161.019531 4 "/>
</g>
</svg>
