<?xml version="1.0" encoding="UTF-8"?>
<svg xmlns="http://www.w3.org/2000/svg" xmlns:xlink="http://www.w3.org/1999/xlink" width="240px" height="240px" viewBox="0 0 240 240" version="1.1">
<g id="surface1">
<path style=" stroke:none;fill-rule:nonzero;fill:rgb(0%,0%,0%);fill-opacity:1;" d="M 100.601562 214.175781 C 92.238281 209.234375 85.109375 204.90625 84.765625 204.558594 C 84.417969 204.214844 87.5 202.488281 91.613281 200.722656 L 99.089844 197.519531 L 108.609375 203.097656 C 113.84375 206.167969 119.089844 208.664062 120.269531 208.648438 C 121.449219 208.632812 139.070312 199.003906 159.433594 187.246094 L 196.453125 165.871094 L 196.453125 74.695312 L 159.433594 53.210938 C 139.070312 41.394531 121.5 31.703125 120.382812 31.675781 C 119.265625 31.660156 101.519531 41.332031 80.949219 53.1875 L 43.546875 74.746094 L 42.695312 165.082031 L 55.191406 172.363281 C 67.097656 179.300781 73.601562 181.082031 77.507812 178.472656 C 82.398438 175.210938 82.980469 169.582031 82.980469 125.796875 L 82.980469 81.332031 L 89.015625 81.828125 L 95.054688 82.324219 L 95.476562 130.742188 C 95.902344 178.890625 95.882812 179.183594 92.210938 184.660156 C 87.171875 192.167969 77.136719 195.445312 67.257812 192.800781 C 59.011719 190.597656 36.578125 178.011719 32.132812 173.101562 C 29.25 169.914062 29.0625 166.652344 29.0625 120.148438 C 29.0625 74.339844 29.285156 70.34375 32.015625 67.328125 C 36.648438 62.210938 115.78125 17.140625 120.132812 17.144531 C 124.515625 17.148438 200.683594 60.410156 206.914062 66.433594 L 210.9375 70.328125 L 210.9375 169.972656 L 206.914062 173.910156 C 203.527344 177.222656 145 212.015625 128.53125 220.503906 C 120.523438 224.628906 116.921875 223.8125 100.601562 214.171875 Z M 125.351562 167.730469 C 110.339844 163.039062 102.941406 155.074219 101.929688 142.527344 C 101.492188 137.082031 101.53125 137.050781 108.988281 136.570312 C 116.171875 136.105469 116.535156 136.292969 117.558594 140.953125 C 119.917969 151.703125 132.785156 156.894531 152.605469 155.097656 C 165.089844 153.964844 170.699219 150.066406 170.699219 142.511719 C 170.699219 137.859375 169.867188 136.65625 165.066406 134.355469 C 161.96875 132.863281 152.550781 130.859375 144.140625 129.882812 C 135.734375 128.90625 125.433594 126.992188 121.253906 125.628906 C 96.421875 117.511719 99.503906 85.054688 125.734375 78.449219 C 134.441406 76.257812 154.332031 76.191406 162.035156 78.277344 C 174.839844 81.832031 183.601562 91.175781 184.65625 102.394531 C 185.183594 108.019531 185.171875 108.027344 177.933594 108.503906 C 170.808594 108.964844 170.625 108.84375 167.46875 102.0625 C 163.667969 93.875 158.0625 91.355469 143.335938 91.21875 C 130.234375 91.050781 122.59375 94.910156 121.917969 101.902344 C 121.242188 108.871094 125.597656 110.871094 148.96875 114.316406 C 173.242188 117.890625 183.023438 122.40625 186.765625 131.761719 C 192.890625 147.074219 184.414062 162.164062 166.742188 167.410156 C 156.3125 170.507812 134.84375 170.644531 125.351562 167.683594 Z M 125.351562 167.730469 "/>
</g>
</svg>
