<?xml version="1.0" encoding="UTF-8"?>
<svg xmlns="http://www.w3.org/2000/svg" xmlns:xlink="http://www.w3.org/1999/xlink" width="240px" height="240px" viewBox="0 0 240 240" version="1.1">
<g id="surface1">
<path style=" stroke:none;fill-rule:nonzero;fill:rgb(0%,0%,0%);fill-opacity:1;" d="M 116.015625 161.136719 C 117.121094 159.601562 116.808594 157.585938 116.496094 156.527344 C 115.871094 154.246094 114.289062 152.230469 112.632812 151.558594 C 110.617188 150.695312 109.511719 150.265625 107.113281 152.976562 C 105.503906 154.824219 104.28125 156.289062 103.296875 157.585938 C 98.808594 163.296875 96.71875 165.265625 83.351562 168.023438 C 80.59375 168.574219 78.984375 169.199219 78.144531 169.558594 C 79.199219 170.304688 81.023438 171.167969 83.0625 171.71875 C 92.929688 174.144531 106.609375 174.335938 116.015625 161.136719 Z M 116.015625 161.136719 "/>
<path style=" stroke:none;fill-rule:nonzero;fill:rgb(0%,0%,0%);fill-opacity:1;" d="M 88.199219 12.070312 C 75.359375 7.894531 43.367188 -0.40625 23.902344 13.414062 C 12 21.886719 6.480469 37.65625 7.632812 60.3125 C 7.992188 67.488281 12.550781 92.976562 20.28125 118.34375 C 29.257812 147.695312 39.382812 166.175781 48.144531 169.054688 C 49.488281 169.488281 53.542969 170.832031 59.496094 163.777344 C 67.847656 153.695312 75.695312 145.175781 79.320312 141.3125 C 78.40625 140.519531 77.542969 139.703125 76.679688 138.863281 C 68.566406 130.390625 64.894531 118.65625 66.550781 106.679688 C 68.328125 93.792969 67.65625 82.367188 67.296875 76.296875 C 67.175781 74.640625 67.105469 73.414062 67.105469 72.550781 C 67.03125 70.34375 66.550781 33.9375 87.601562 12.695312 C 87.816406 12.433594 88.007812 12.238281 88.199219 12.070312 Z M 88.199219 12.070312 "/>
<path style=" stroke:none;fill-rule:nonzero;fill:rgb(0%,0%,0%);fill-opacity:1;" d="M 110.734375 75.121094 C 109.558594 69.648438 106.753906 66.527344 102.070312 65.472656 C 91.871094 63.144531 77.640625 70.824219 74.566406 73.511719 C 74.566406 74.136719 74.640625 74.929688 74.6875 75.792969 C 75.046875 82.175781 75.792969 94.03125 73.894531 107.664062 C 72.550781 117.359375 75.503906 126.886719 82.054688 133.703125 C 87.214844 139.054688 93.960938 142.054688 100.894531 142.054688 C 101.6875 138.792969 102.984375 135.3125 104.398438 131.617188 L 104.953125 130.152344 C 105.695312 128.257812 106.488281 126.40625 107.351562 124.441406 C 111.527344 115.03125 116.808594 103.296875 110.734375 75.121094 Z M 110.734375 75.121094 "/>
<path style=" stroke:none;fill-rule:nonzero;fill:rgb(0%,0%,0%);fill-opacity:1;" d="M 152.976562 236.785156 C 168.742188 233.398438 174.335938 227.6875 176.976562 212.472656 C 178.945312 200.929688 182.878906 168.191406 183.433594 161.257812 C 182.761719 147.382812 190.246094 144.550781 194.425781 143.398438 C 193.871094 142.65625 193.199219 141.742188 192.457031 140.832031 C 190.054688 137.878906 186.863281 133.824219 184.34375 127.753906 C 183.984375 126.839844 182.734375 124.632812 181.34375 122.113281 C 173.664062 108.289062 157.632812 79.632812 168.023438 64.824219 C 172.753906 58.007812 182.136719 55.296875 195.960938 56.710938 C 194.113281 51.238281 189.503906 41.183594 181.03125 31.175781 C 171.191406 19.558594 153.769531 5.542969 126.574219 5.113281 C 112.753906 4.871094 101.472656 9.097656 92.929688 17.6875 C 79.414062 31.320312 75.792969 52.871094 74.878906 64.414062 C 75.503906 64.054688 76.175781 63.671875 76.894531 63.3125 C 80.328125 61.585938 87.214844 58.511719 94.703125 57.792969 C 107.230469 56.496094 115.464844 62.089844 117.984375 73.511719 C 124.609375 104.015625 118.464844 117.601562 114.046875 127.414062 C 113.257812 129.265625 112.441406 130.96875 111.839844 132.625 L 111.289062 134.089844 C 109.992188 137.59375 108.769531 140.832031 108.097656 143.734375 C 111.359375 142.871094 114.121094 144.046875 115.585938 144.648438 C 119.328125 146.183594 122.398438 149.929688 123.695312 154.414062 C 123.9375 155.160156 124.054688 155.953125 124.175781 156.695312 C 124.246094 157.054688 124.296875 157.367188 124.296875 157.726562 C 123.433594 188.375 124.65625 216.191406 127.128906 222.3125 C 130.871094 231.984375 136.632812 240.289062 152.976562 236.785156 Z M 152.976562 236.785156 "/>
<path style=" stroke:none;fill-rule:nonzero;fill:rgb(0%,0%,0%);fill-opacity:1;" d="M 179.0625 2.425781 C 170.59375 2.230469 163.105469 3.289062 157.585938 4.441406 C 170.425781 10.078125 179.808594 18.503906 186.191406 25.992188 C 197.976562 39.695312 203.761719 54.839844 204.191406 59.878906 C 204.265625 60.671875 204.191406 61.296875 204.070312 61.847656 C 204.265625 67.128906 203.59375 71.617188 202.894531 75.910156 C 202.34375 79.414062 201.792969 83.039062 201.671875 87.265625 C 201.550781 91.246094 202.03125 95.496094 202.585938 99.984375 C 203.878906 110.976562 205.414062 123.3125 197.785156 135.769531 C 197.902344 135.960938 198.023438 136.078125 198.144531 136.246094 C 198.457031 136.609375 198.769531 136.992188 199.007812 137.351562 C 228.289062 91.296875 238.414062 37.894531 229.222656 26.160156 C 217.367188 10.894531 200.496094 2.855469 179.0625 2.425781 Z M 179.0625 2.425781 "/>
<path style=" stroke:none;fill-rule:nonzero;fill:rgb(0%,0%,0%);fill-opacity:1;" d="M 203.0625 162.480469 C 209.878906 162.167969 217.007812 160.703125 221.230469 158.664062 C 226.199219 156.335938 229.703125 153.816406 231.71875 151.847656 C 231.648438 151.847656 231.601562 151.847656 231.527344 151.921875 C 216.359375 155.039062 205.609375 154.632812 199.609375 150.625 C 199.246094 150.382812 198.863281 150.144531 198.574219 149.878906 C 198.097656 150.070312 197.519531 150.191406 197.039062 150.359375 C 193.609375 151.34375 190.414062 152.207031 190.847656 160.847656 C 191.710938 161.640625 195.574219 162.863281 203.0625 162.480469 Z M 203.0625 162.480469 "/>
<path style=" stroke:none;fill-rule:nonzero;fill:rgb(0%,0%,0%);fill-opacity:1;" d="M 174.097656 69.167969 C 166.414062 80.160156 181.390625 107.113281 187.847656 118.585938 C 189.503906 121.535156 190.679688 123.671875 191.230469 125.039062 C 191.855469 126.503906 192.527344 127.800781 193.199219 129.023438 C 197.617188 119.640625 196.464844 110.113281 195.359375 100.894531 C 194.808594 96.289062 194.257812 91.558594 194.375 87.023438 C 194.496094 82.367188 195.121094 78.480469 195.671875 74.734375 C 196.222656 71.304688 196.726562 67.992188 196.777344 64.296875 C 182.183594 62.519531 176.351562 65.902344 174.097656 69.167969 Z M 174.097656 69.167969 "/>
</g>
</svg>
