<?xml version="1.0" encoding="UTF-8"?>
<svg xmlns="http://www.w3.org/2000/svg" xmlns:xlink="http://www.w3.org/1999/xlink" width="240px" height="240px" viewBox="0 0 240 240" version="1.1">
<g id="surface1">
<path style=" stroke:none;fill-rule:nonzero;fill:rgb(0%,0%,0%);fill-opacity:1;" d="M 192.496094 84.710938 C 190.101562 83.894531 187.6875 83.132812 185.253906 82.425781 C 185.65625 80.785156 186.03125 79.132812 186.371094 77.476562 C 191.855469 50.804688 188.269531 29.316406 176.03125 22.242188 C 164.3125 15.453125 145.09375 22.527344 125.703125 39.441406 C 123.796875 41.109375 121.929688 42.828125 120.101562 44.597656 C 118.882812 43.421875 117.632812 42.273438 116.351562 41.148438 C 96.03125 23.0625 75.664062 15.445312 63.441406 22.542969 C 51.722656 29.34375 48.238281 49.542969 53.175781 74.820312 C 53.667969 77.320312 54.222656 79.8125 54.839844 82.289062 C 51.957031 83.109375 49.171875 83.984375 46.507812 84.914062 C 22.714844 93.234375 7.5 106.28125 7.5 119.808594 C 7.5 133.785156 23.832031 147.800781 48.640625 156.300781 C 50.65625 156.984375 52.6875 157.621094 54.734375 158.207031 C 54.070312 160.859375 53.480469 163.542969 52.96875 166.257812 C 48.28125 191.101562 51.9375 210.820312 63.632812 217.578125 C 75.710938 224.558594 95.976562 217.386719 115.730469 200.089844 C 117.292969 198.722656 118.855469 197.277344 120.417969 195.753906 C 122.390625 197.664062 124.421875 199.515625 126.511719 201.3125 C 145.636719 217.804688 164.523438 224.464844 176.199219 217.6875 C 188.269531 210.683594 192.191406 189.496094 187.097656 163.71875 C 186.707031 161.75 186.257812 159.742188 185.746094 157.691406 C 187.171875 157.269531 188.566406 156.835938 189.933594 156.382812 C 215.714844 147.820312 232.507812 133.972656 232.507812 119.820312 C 232.5 106.226562 216.796875 93.097656 192.496094 84.710938 Z M 132.027344 46.707031 C 148.636719 32.21875 164.160156 26.5 171.238281 30.585938 C 178.773438 34.941406 181.703125 52.5 176.96875 75.53125 C 176.65625 77.03125 176.316406 78.523438 175.953125 80.015625 C 166.042969 77.761719 155.992188 76.171875 145.871094 75.253906 C 140.074219 66.902344 133.722656 58.957031 126.851562 51.464844 C 128.535156 49.832031 130.257812 48.246094 132.019531 46.707031 Z M 73.9375 131.367188 C 75.96875 135.304688 78.097656 139.195312 80.316406 143.035156 C 82.574219 146.953125 84.929688 150.8125 87.378906 154.617188 C 80.414062 153.859375 73.492188 152.746094 66.640625 151.273438 C 68.628906 144.84375 71.078125 138.164062 73.9375 131.367188 Z M 73.9375 108.710938 C 71.125 102.0625 68.742188 95.515625 66.789062 89.199219 C 73.210938 87.757812 80.054688 86.582031 87.1875 85.691406 C 84.796875 89.421875 82.496094 93.210938 80.289062 97.050781 C 78.078125 100.890625 75.957031 104.777344 73.921875 108.710938 Z M 79.046875 120.042969 C 82.007812 113.863281 85.199219 107.804688 88.617188 101.863281 C 92.03125 95.925781 95.667969 90.125 99.523438 84.460938 C 106.21875 83.953125 113.082031 83.6875 120.015625 83.6875 C 126.945312 83.6875 133.851562 83.953125 140.539062 84.464844 C 144.355469 90.117188 147.96875 95.898438 151.382812 101.808594 C 154.796875 107.71875 158.027344 113.75 161.082031 119.902344 C 158.070312 126.101562 154.84375 132.1875 151.40625 138.15625 C 147.996094 144.09375 144.402344 149.910156 140.625 155.609375 C 133.945312 156.078125 127.03125 156.335938 120 156.335938 C 112.96875 156.335938 106.1875 156.117188 99.628906 155.691406 C 95.742188 150.007812 92.078125 144.179688 88.632812 138.210938 C 85.183594 132.242188 81.984375 126.1875 79.03125 120.042969 Z M 159.726562 142.96875 C 161.992188 139.039062 164.167969 135.054688 166.25 131.019531 C 169.109375 137.5 171.632812 144.121094 173.808594 150.859375 C 166.875 152.417969 159.867188 153.617188 152.8125 154.445312 C 155.195312 150.664062 157.5 146.839844 159.726562 142.96875 Z M 166.15625 108.71875 C 164.082031 104.765625 161.925781 100.859375 159.683594 97 C 157.496094 93.191406 155.21875 89.433594 152.84375 85.71875 C 160.023438 86.628906 166.90625 87.839844 173.363281 89.316406 C 171.289062 95.898438 168.882812 102.375 166.15625 108.71875 Z M 120.109375 58.351562 C 124.789062 63.464844 129.207031 68.8125 133.351562 74.371094 C 124.492188 73.949219 115.625 73.949219 106.753906 74.371094 C 111.125 68.585938 115.601562 63.21875 120.109375 58.351562 Z M 68.277344 30.871094 C 75.804688 26.503906 92.453125 32.746094 109.996094 48.34375 C 111.117188 49.339844 112.246094 50.386719 113.371094 51.46875 C 106.46875 58.960938 100.070312 66.902344 94.21875 75.238281 C 84.117188 76.148438 74.085938 77.714844 64.191406 79.925781 C 63.617188 77.625 63.101562 75.3125 62.644531 72.980469 C 58.402344 51.308594 61.210938 34.972656 68.277344 30.871094 Z M 57.304688 148.925781 C 55.429688 148.390625 53.578125 147.8125 51.75 147.1875 C 40.78125 143.4375 31.71875 138.542969 25.5 133.214844 C 19.929688 128.4375 17.109375 123.671875 17.109375 119.808594 C 17.109375 111.601562 29.324219 101.128906 49.695312 94.027344 C 52.257812 93.136719 54.835938 92.320312 57.441406 91.585938 C 60.464844 101.308594 64.128906 110.820312 68.410156 120.0625 C 64.078125 129.429688 60.371094 139.070312 57.304688 148.925781 Z M 109.398438 192.835938 C 100.664062 200.484375 91.917969 205.90625 84.207031 208.640625 C 77.277344 211.09375 71.761719 211.164062 68.429688 209.234375 C 61.332031 205.132812 58.378906 189.296875 62.40625 168.050781 C 62.882812 165.550781 63.429688 163.050781 64.046875 160.550781 C 74.042969 162.703125 84.171875 164.175781 94.367188 164.953125 C 100.277344 173.335938 106.730469 181.320312 113.679688 188.859375 C 112.285156 190.234375 110.855469 191.554688 109.398438 192.835938 Z M 120.375 181.949219 C 115.820312 177.023438 111.273438 171.570312 106.835938 165.710938 C 111.148438 165.882812 115.535156 165.964844 120 165.964844 C 124.585938 165.964844 129.121094 165.867188 133.59375 165.664062 C 129.46875 171.316406 125.054688 176.75 120.375 181.949219 Z M 178.742188 195.351562 C 177.402344 202.589844 174.707031 207.417969 171.375 209.347656 C 164.28125 213.464844 149.117188 208.117188 132.769531 194.011719 C 130.894531 192.398438 129.019531 190.667969 127.109375 188.855469 C 133.929688 181.285156 140.226562 173.269531 145.96875 164.855469 C 156.222656 163.984375 166.402344 162.410156 176.4375 160.144531 C 176.898438 162 177.304688 163.820312 177.65625 165.601562 C 179.910156 176.992188 180.234375 187.292969 178.742188 195.351562 Z M 186.898438 147.238281 C 185.671875 147.648438 184.40625 148.039062 183.121094 148.425781 C 179.976562 138.65625 176.167969 129.113281 171.726562 119.859375 C 176 110.730469 179.660156 101.324219 182.675781 91.707031 C 184.976562 92.375 187.214844 93.078125 189.367188 93.824219 C 210.1875 101.007812 222.890625 111.636719 222.890625 119.808594 C 222.890625 128.527344 209.171875 139.84375 186.898438 147.238281 Z M 186.898438 147.238281 "/>
<path style=" stroke:none;fill-rule:nonzero;fill:rgb(0%,0%,0%);fill-opacity:1;" d="M 120 139.945312 C 128.160156 139.972656 135.527344 135.078125 138.667969 127.546875 C 141.808594 120.019531 140.101562 111.339844 134.339844 105.558594 C 128.582031 99.78125 119.90625 98.046875 112.367188 101.160156 C 104.828125 104.277344 99.910156 111.628906 99.910156 119.789062 C 99.886719 130.90625 108.882812 139.933594 120 139.945312 Z M 120 139.945312 "/>
</g>
</svg>
