<?xml version="1.0" encoding="UTF-8"?>
<svg xmlns="http://www.w3.org/2000/svg" xmlns:xlink="http://www.w3.org/1999/xlink" width="240px" height="240px" viewBox="0 0 240 240" version="1.1">
<g id="surface1">
<path style=" stroke:none;fill-rule:nonzero;fill:rgb(0%,0%,0%);fill-opacity:1;" d="M 239.925781 143.398438 C 239.851562 145.703125 236.796875 148.246094 230.585938 151.484375 C 217.777344 158.167969 151.449219 185.46875 137.300781 192.808594 C 123.164062 200.191406 115.351562 200.113281 104.175781 194.761719 C 93 189.449219 22.417969 160.890625 9.683594 154.835938 C 3.351562 151.792969 0.113281 149.25 -0.0078125 146.828125 L -0.0078125 171.082031 C -0.0078125 173.503906 3.351562 176.039062 9.683594 179.09375 C 22.417969 185.191406 93.046875 213.703125 104.175781 219.015625 C 115.351562 224.371094 123.15625 224.445312 137.300781 217.066406 C 151.441406 209.722656 217.769531 182.414062 230.585938 175.738281 C 237.113281 172.378906 240 169.726562 240 167.339844 C 240 165.074219 240 143.429688 240 143.429688 C 240 143.390625 239.960938 143.390625 239.925781 143.390625 Z M 239.925781 103.867188 C 239.804688 106.132812 236.796875 108.675781 230.585938 111.953125 C 217.777344 118.589844 151.449219 145.898438 137.300781 153.238281 C 123.164062 160.621094 115.351562 160.546875 104.175781 155.234375 C 93 149.878906 22.417969 121.363281 9.683594 115.273438 C 3.351562 112.265625 0.113281 109.6875 -0.0078125 107.265625 L -0.0078125 131.519531 C -0.0078125 133.941406 3.351562 136.523438 9.683594 139.53125 C 22.417969 145.628906 93 174.140625 104.175781 179.488281 C 115.351562 184.800781 123.15625 184.882812 137.300781 177.539062 C 151.441406 170.160156 217.769531 142.890625 230.585938 136.214844 C 237.113281 132.816406 240 130.164062 240 127.777344 C 240 125.511719 240 103.867188 240 103.867188 C 240 103.867188 239.960938 103.867188 239.925781 103.867188 Z M 239.925781 62.8125 C 240.046875 60.390625 236.878906 58.246094 230.429688 55.898438 C 217.972656 51.328125 151.996094 25.078125 139.371094 20.429688 C 126.757812 15.816406 121.597656 16.011719 106.753906 21.328125 C 91.914062 26.683594 21.710938 54.21875 9.21875 59.101562 C 2.96875 61.558594 -0.0820312 63.824219 0.0390625 66.246094 L 0.0390625 90.503906 C 0.0390625 92.925781 3.359375 95.460938 9.726562 98.511719 C 22.425781 104.609375 93.046875 133.125 104.21875 138.472656 C 115.351562 143.78125 123.203125 143.863281 137.347656 136.476562 C 151.449219 129.136719 217.816406 101.828125 230.632812 95.191406 C 237.121094 91.792969 240.007812 89.136719 240.007812 86.753906 C 240.007812 84.488281 240.007812 62.804688 240.007812 62.804688 Z M 85.933594 85.785156 L 141.5625 77.273438 L 124.761719 101.878906 Z M 208.941406 63.59375 L 172.5 78.007812 L 139.613281 65.003906 L 176.015625 50.625 Z M 112.378906 39.765625 L 106.988281 29.84375 L 123.789062 36.40625 L 139.605469 31.246094 L 135.308594 41.484375 L 151.441406 47.535156 L 130.65625 49.679688 L 125.96875 60.890625 L 118.46875 48.390625 L 94.449219 46.246094 Z M 70.933594 53.789062 C 87.382812 53.789062 100.664062 58.949219 100.664062 65.273438 C 100.664062 71.640625 87.34375 76.792969 70.933594 76.792969 C 54.523438 76.792969 41.203125 71.632812 41.203125 65.273438 C 41.203125 58.941406 54.523438 53.789062 70.933594 53.789062 Z M 70.933594 53.789062 "/>
</g>
</svg>
