<?xml version="1.0" encoding="UTF-8"?>
<svg xmlns="http://www.w3.org/2000/svg" xmlns:xlink="http://www.w3.org/1999/xlink" width="240px" height="240px" viewBox="0 0 240 240" version="1.1">
<g id="surface1">
<path style=" stroke:none;fill-rule:nonzero;fill:rgb(0%,0%,0%);fill-opacity:1;" d="M 136.210938 223.929688 C 140.46875 220.886719 146.554688 216.019531 149.902344 212.976562 C 208.242188 236.152344 227.273438 190.851562 225.753906 173.5625 C 224.074219 154.421875 200.300781 99.785156 119.476562 99.785156 C 115.675781 108.695312 104.5625 113.164062 95.371094 107.839844 C 84.089844 101.304688 84.089844 84.878906 95.371094 78.347656 C 104.132812 73.269531 114.640625 77.09375 118.894531 85.179688 C 167.96875 84.929688 222.980469 105.773438 238.363281 163.765625 C 249.457031 205.589844 202.910156 254.347656 136.210938 223.929688 Z M 166.402344 164.777344 C 174.519531 163.820312 181.558594 157.042969 181.558594 147.859375 C 181.558594 134.792969 167.304688 126.582031 155.964844 133.113281 C 146.015625 138.847656 144.796875 152.1875 152.304688 159.789062 C 125.378906 209.992188 65.242188 229.621094 33.507812 210.566406 C 15.933594 200.015625 -2.1875 162.242188 40.0625 127.476562 C 38.84375 123.519531 37.019531 116.824219 36.105469 111.957031 C -39.855469 169.199219 14.824219 260.28125 100.46875 224.8125 C 123.625 215.222656 148.730469 198.460938 166.402344 164.777344 Z M 73.773438 184.210938 C 85.128906 190.746094 99.402344 182.53125 99.402344 169.464844 C 99.402344 158.558594 89.464844 151.042969 79.574219 152.648438 C 16.753906 35.308594 149.015625 -34.375 166.03125 76.660156 L 181.242188 81.226562 C 170.179688 -8.089844 103.398438 0.0820312 82.003906 18.171875 C 65.972656 31.730469 23.109375 79.433594 67.394531 161.152344 C 63.125 168.835938 65.253906 179.308594 73.773438 184.210938 Z M 73.773438 184.210938 "/>
</g>
</svg>
