<?xml version="1.0" encoding="UTF-8"?>
<svg xmlns="http://www.w3.org/2000/svg" xmlns:xlink="http://www.w3.org/1999/xlink" width="240px" height="240px" viewBox="0 0 240 240" version="1.1">
<g id="surface1">
<path style=" stroke:none;fill-rule:nonzero;fill:rgb(0%,0%,0%);fill-opacity:1;" d="M 0 120 L 0 240 L 240 240 L 240 0 L 0 0 Z M 193.410156 110.441406 C 199.511719 111.960938 204.148438 114.671875 208.421875 119.089844 C 210.628906 121.449219 213.910156 125.75 214.171875 126.789062 C 214.25 127.089844 203.808594 134.089844 197.488281 138.019531 C 197.261719 138.171875 196.339844 137.179688 195.320312 135.660156 C 192.21875 131.160156 188.988281 129.21875 184.039062 128.878906 C 176.761719 128.378906 172.078125 132.191406 172.121094 138.550781 C 172.054688 140.113281 172.40625 141.667969 173.140625 143.050781 C 174.738281 146.359375 177.71875 148.351562 187.039062 152.378906 C 204.230469 159.78125 211.578125 164.648438 216.148438 171.578125 C 221.25 179.308594 222.398438 191.660156 218.929688 200.839844 C 215.128906 210.820312 205.679688 217.601562 192.378906 219.839844 C 188.269531 220.570312 178.519531 220.460938 174.101562 219.660156 C 164.460938 217.941406 155.320312 213.179688 149.679688 206.929688 C 147.46875 204.5 143.160156 198.128906 143.429688 197.679688 C 143.539062 197.519531 144.53125 196.910156 145.628906 196.269531 C 146.710938 195.660156 150.738281 193.328125 154.550781 191.121094 L 161.449219 187.121094 L 162.898438 189.261719 C 164.921875 192.339844 169.328125 196.570312 172 197.980469 C 179.660156 202.019531 190.171875 201.449219 195.351562 196.800781 C 197.460938 195.019531 198.621094 192.355469 198.480469 189.601562 C 198.480469 186.820312 198.128906 185.601562 196.679688 183.5 C 194.820312 180.839844 191.011719 178.601562 180.191406 173.898438 C 167.808594 168.570312 162.480469 165.261719 157.601562 160 C 154.554688 156.527344 152.304688 152.433594 151.011719 148 C 150.101562 144.609375 149.871094 136.109375 150.589844 132.691406 C 153.140625 120.71875 162.171875 112.390625 175.199219 109.910156 C 179.429688 109.109375 189.261719 109.410156 193.410156 110.441406 Z M 137.070312 120.460938 L 137.148438 130.289062 L 105.898438 130.289062 L 105.898438 219.050781 L 83.800781 219.050781 L 83.800781 130.289062 L 52.578125 130.289062 L 52.578125 120.648438 C 52.578125 115.308594 52.691406 110.851562 52.839844 110.75 C 52.960938 110.589844 71.96875 110.511719 95.011719 110.550781 L 136.960938 110.671875 Z M 137.070312 120.460938 "/>
</g>
</svg>
