<?xml version="1.0" encoding="utf-8"?>
<!-- Svg Vector Icons : http://www.onlinewebfonts.com/icon -->
<!DOCTYPE svg PUBLIC "-//W3C//DTD SVG 1.1//EN" "http://www.w3.org/Graphics/SVG/1.1/DTD/svg11.dtd">
<svg version="1.1" xmlns="http://www.w3.org/2000/svg" xmlns:xlink="http://www.w3.org/1999/xlink" x="0px" y="0px" viewBox="0 0 1000 1000" enable-background="new 0 0 1000 1000" xml:space="preserve">
<metadata> Svg Vector Icons : http://www.onlinewebfonts.com/icon </metadata>
<g><path d="M483.4,671.4c4.6-6.4,3.3-14.8,2-19.2c-2.6-9.5-9.2-17.9-16.1-20.7c-8.4-3.6-13-5.4-23,5.9l0,0c-6.7,7.7-11.8,13.8-15.9,19.2c-18.7,23.8-27.4,32-83.1,43.5c-11.5,2.3-18.2,4.9-21.7,6.4c4.4,3.1,12,6.7,20.5,9C387.2,725.6,444.2,726.4,483.4,671.4z"/><path d="M367.5,50.3C314,32.9,180.7-1.7,99.6,55.9C50,91.2,27,156.9,31.8,251.3c1.5,29.9,20.5,136.1,52.7,241.8c37.4,122.3,79.6,199.3,116.1,211.3c5.6,1.8,22.5,7.4,47.3-22c34.8-42,67.5-77.5,82.6-93.6c-3.8-3.3-7.4-6.7-11-10.2c-33.8-35.3-49.1-84.2-42.2-134.1c7.4-53.7,4.6-101.3,3.1-126.6c-0.5-6.9-0.8-12-0.8-15.6c-0.3-9.2-2.3-160.9,85.4-249.4C365.9,51.8,366.7,51,367.5,50.3z"/><path d="M461.4,313c-4.9-22.8-16.6-35.8-36.1-40.2c-42.5-9.7-101.8,22.3-114.6,33.5c0,2.6,0.3,5.9,0.5,9.5c1.5,26.6,4.6,76-3.3,132.8c-5.6,40.4,6.7,80.1,34,108.5c21.5,22.3,49.6,34.8,78.5,34.8c3.3-13.6,8.7-28.1,14.6-43.5l2.3-6.1c3.1-7.9,6.4-15.6,10-23.8C464.7,479.3,486.7,430.4,461.4,313z"/><path d="M637.4,986.6c65.7-14.1,89-37.9,100-101.3c8.2-48.1,24.6-184.5,26.9-213.4c-2.8-57.8,28.4-69.6,45.8-74.4c-2.3-3.1-5.1-6.9-8.2-10.7c-10-12.3-23.3-29.2-33.8-54.5c-1.5-3.8-6.7-13-12.5-23.5c-32-57.6-98.8-177-55.5-238.7c19.7-28.4,58.8-39.7,116.4-33.8c-7.7-22.8-26.9-64.7-62.2-106.4C713.3,81.5,640.7,23.1,527.4,21.3c-57.6-1-104.6,16.6-140.2,52.4c-56.3,56.8-71.4,146.6-75.2,194.7c2.6-1.5,5.4-3.1,8.4-4.6c14.3-7.2,43-20,74.2-23c52.2-5.4,86.5,17.9,97,65.5c27.6,127.1,2,183.7-16.4,224.6c-3.3,7.7-6.7,14.8-9.2,21.7l-2.3,6.1c-5.4,14.6-10.5,28.1-13.3,40.2c13.6-3.6,25.1,1.3,31.2,3.8c15.6,6.4,28.4,22,33.8,40.7c1,3.1,1.5,6.4,2,9.5c0.3,1.5,0.5,2.8,0.5,4.3c-3.6,127.7,1.5,243.6,11.8,269.1C545.3,966.6,569.3,1001.2,637.4,986.6z"/><path d="M746.1,10.1c-35.3-0.8-66.5,3.6-89.5,8.4c53.5,23.5,92.6,58.6,119.2,89.8c49.1,57.1,73.2,120.2,75,141.2c0.3,3.3,0,5.9-0.5,8.2c0.8,22-2,40.7-4.9,58.6c-2.3,14.6-4.6,29.7-5.1,47.3c-0.5,16.6,1.5,34.3,3.8,53c5.4,45.8,11.8,97.2-20,149.1c0.5,0.8,1,1.3,1.5,2c1.3,1.5,2.6,3.1,3.6,4.6c122-191.9,164.2-414.4,125.9-463.3C905.7,45.4,835.4,11.9,746.1,10.1z"/><path d="M846.1,677c28.4-1.3,58.1-7.4,75.7-15.9c20.7-9.7,35.3-20.2,43.7-28.4c-0.3,0-0.5,0-0.8,0.3c-63.2,13-108,11.3-133-5.4c-1.5-1-3.1-2-4.3-3.1c-2,0.8-4.4,1.3-6.4,2c-14.3,4.1-27.6,7.7-25.8,43.7C798.8,673.5,814.9,678.6,846.1,677z"/><path d="M725.4,288.2c-32,45.8,30.4,158.1,57.3,205.9c6.9,12.3,11.8,21.2,14.1,26.9c2.6,6.1,5.4,11.5,8.2,16.6c18.4-39.1,13.6-78.8,9-117.2c-2.3-19.2-4.6-38.9-4.1-57.8c0.5-19.4,3.1-35.6,5.4-51.2c2.3-14.3,4.4-28.1,4.6-43.5C759.1,260.5,734.8,274.6,725.4,288.2z"/></g>
</svg>